# xmcd
# Track frame offsets:
# 150
# 20288
# 36061
# 50024
# 61115
# 79097
# 91598
# 105737
# 118910
# 130468
# 146267
# 165371
# 180063
# 194150
# 208624
#
# Disc length: 3020 seconds
# Revision: 0
# Processed by: cddbd v1.5.1PL0 Copyright (c) Steve Scherf et al.
# Submitted via: VisiTrax 2.9.10.228 - For more info visit www.synapsa.com
#
DISCID=c10bca0f
DTITLE=Williams, Don - CB90071
DYEAR=1900
DGENRE=Karaoke
TTITLE0=Good Ole Boys Like Me
TTITLE1=Back In My Younger Days
TTITLE2=I Wouldn't Want To Live If You Didn't Love
TTITLE3=It Must Be Love
TTITLE4=Lord, I Hope This Day Is Good
TTITLE5=Some Broken Hearts Never Mend
TTITLE6=Stay Young
TTITLE7=True Love
TTITLE8=Turn Out The Light And Love Me Tonight
TTITLE9=Amanda
TTITLE10=I Believe In You
TTITLE11=I'm Just A Country Boy
TTITLE12=Tulsa Time
TTITLE13=Love Me Over Again
TTITLE14=Love Is On A Roll
EXTD=
EXTT0=
EXTT1=
EXTT2=
EXTT3=
EXTT4=
EXTT5=
EXTT6=
EXTT7=
EXTT8=
EXTT9=
EXTT10=
EXTT11=
EXTT12=
EXTT13=
EXTT14=
PLAYORDER=
